<svg id="Layer_1" height="512" viewBox="0 0 512 512" width="512" xmlns="http://www.w3.org/2000/svg" data-name="Layer 1"><path d="m207.34 217.33v142.05a10.264 10.264 0 0 0 10.26 10.27h225.87a10.273 10.273 0 0 0 10.27-10.27v-142.05z" fill="#e8a467"/><path d="m281.4 247.47h80v30h-80z" fill="#c24e38"/><path d="m281.4 247.47h20v30h-20z" fill="#ed6337"/><path d="m330.54 142.35v74.98h-123.2l44.76-70.23a10.293 10.293 0 0 1 8.66-4.75z" fill="#e8a467"/><path d="m280.76 142.35h-20a10.293 10.293 0 0 0 -8.66 4.75l-44.76 70.23h20l44.76-70.23a10.293 10.293 0 0 1 8.66-4.75z" fill="#e29454"/><path d="m227.34 359.38v-142.05h-20v142.05a10.264 10.264 0 0 0 10.26 10.27h20a10.264 10.264 0 0 1 -10.26-10.27z" fill="#e29454"/><circle cx="143.58" cy="408.36" fill="#475673" r="42.64"/><path d="m120.94 408.36a42.647 42.647 0 0 1 32.64-41.449 42.64 42.64 0 1 0 0 82.9 42.647 42.647 0 0 1 -32.64-41.451z" fill="#5f6a78"/><path d="m408.97 147.1 44.77 70.23h-123.2v-74.98h69.77a10.281 10.281 0 0 1 8.66 4.75z" fill="#e8a467"/><g fill="#284268"><path d="m461.079 401.889h-268.295a49.738 49.738 0 0 0 -41.215-42.521v-257.3a48.122 48.122 0 0 0 -48.069-48.068h-52.579a7 7 0 1 0 0 14h52.579a34.107 34.107 0 0 1 34.068 34.067v257.026a49.637 49.637 0 1 0 55.08 56.8h268.43a7 7 0 1 0 0-14zm-317.501 42.111a35.642 35.642 0 1 1 35.642-35.643 35.683 35.683 0 0 1 -35.642 35.643z"/><path d="m217.6 376.646h225.874a17.287 17.287 0 0 0 17.267-17.268v-142.045a6.991 6.991 0 0 0 -.064-.9c-.01-.072-.021-.143-.033-.215a6.861 6.861 0 0 0 -.165-.761c-.01-.039-.018-.078-.03-.117a6.834 6.834 0 0 0 -.314-.849c-.021-.047-.044-.091-.066-.137a6.878 6.878 0 0 0 -.372-.687c-.02-.032-.033-.067-.053-.1l-44.769-70.23a17.19 17.19 0 0 0 -14.561-7.985h-139.552a17.19 17.19 0 0 0 -14.562 7.988l-44.768 70.23c-.021.032-.034.067-.054.1a7.089 7.089 0 0 0 -.372.687c-.022.046-.045.091-.066.137a6.908 6.908 0 0 0 -.314.85c-.012.038-.019.076-.03.114a7.132 7.132 0 0 0 -.165.763c-.011.072-.023.143-.033.215a7.175 7.175 0 0 0 -.064.9v142.042a17.287 17.287 0 0 0 17.266 17.268zm119.938-227.291h62.776a3.252 3.252 0 0 1 2.755 1.511l37.908 59.467h-103.439zm-79.531 1.511a3.252 3.252 0 0 1 2.755-1.511h62.776v60.978h-103.438zm-43.672 73.467h232.406v135.045a3.271 3.271 0 0 1 -3.267 3.268h-225.874a3.271 3.271 0 0 1 -3.267-3.268z"/><path d="m285.639 324.083 3.9-3.9v26.117a6 6 0 0 0 12 0v-26.116l3.9 3.9a6 6 0 0 0 8.485-8.486l-14.142-14.142a6 6 0 0 0 -8.486 0l-14.143 14.144a6 6 0 0 0 8.486 8.486z"/><path d="m359.538 305.7v26.118l-3.9-3.9a6 6 0 0 0 -8.486 8.486l14.148 14.141a6 6 0 0 0 8.486 0l14.137-14.145a6 6 0 0 0 -8.485-8.486l-3.9 3.9v-26.114a6 6 0 0 0 -12 0z"/><path d="m281.4 283.466h80a6 6 0 0 0 6-6v-30a6 6 0 0 0 -6-6h-80a6 6 0 0 0 -6 6v30a6 6 0 0 0 6 6zm6-30h68v18h-68z"/></g></svg>