<svg height="512" viewBox="0 0 64 64" width="512" xmlns="http://www.w3.org/2000/svg"><g id="exchange-transfer-money-bank-financial"><circle cx="19" cy="19" fill="#ffe477" r="16"/><path d="m35 19a16 16 0 0 1 -16 16 16.524 16.524 0 0 1 -2-.12 16 16 0 0 0 0-31.75 14.713 14.713 0 0 1 2-.13 16 16 0 0 1 16 16z" fill="#ffd422"/><path d="m25 15h-4a2 2 0 1 0 -2 2 6 6 0 0 1 2 11.65v2.35h-4v-2.35a5.991 5.991 0 0 1 -4-5.65h4a2 2 0 1 0 2-2 6 6 0 0 1 -2-11.66v-2.34h4v2.35a5.991 5.991 0 0 1 4 5.65z" fill="#ffcd00"/><g fill="#ddb200"><path d="m18 24.73a2 2 0 0 1 -3-1.73h2a2 2 0 0 0 1 1.73z"/><path d="m25 23a5.991 5.991 0 0 1 -4 5.65v2.35h-2v-2.35a6 6 0 0 0 -2-11.65 2 2 0 1 1 1-3.73 2 2 0 0 0 1 3.73 6 6 0 0 1 6 6z"/><path d="m19 9.35v-2.35h2v2.35a5.991 5.991 0 0 1 4 5.65h-2a5.991 5.991 0 0 0 -4-5.65z"/></g><circle cx="45" cy="45" fill="#bdfdff" r="16"/><path d="m55 43h-20l10-10z" fill="#806749"/><path d="m55 43h-4l-8-8 2-2z" fill="#5f4d37"/><path d="m47 43h4v9h-4z" fill="#c6c5ca"/><path d="m43 43h4v9h-4z" fill="#bdfdff"/><path d="m39 43h4v9h-4z" fill="#c6c5ca"/><path d="m61 45a16 16 0 0 1 -16 16 16.524 16.524 0 0 1 -2-.12 16 16 0 0 0 0-31.75 14.713 14.713 0 0 1 2-.13 16 16 0 0 1 16 16z" fill="#46f8ff"/><path d="m49 43h2v9h-2z" fill="#898890"/><path d="m41 43h2v9h-2z" fill="#898890"/><path d="m37 52h16v4h-16z" fill="#806749"/><path d="m50 52h3v4h-3z" fill="#5f4d37"/><path d="m19 24a1 1 0 0 1 -1-1 1 1 0 0 0 -1-1h-4a1 1 0 0 0 -1 1 7.009 7.009 0 0 0 4 6.319v1.681a1 1 0 0 0 1 1h4a1 1 0 0 0 1-1v-1.681a7 7 0 0 0 -3-13.319 1 1 0 1 1 1-1 1 1 0 0 0 1 1h4a1 1 0 0 0 1-1 7.011 7.011 0 0 0 -4-6.32v-1.68a1 1 0 0 0 -1-1h-4a1 1 0 0 0 -1 1v1.669a6.943 6.943 0 0 0 -3.844 4.836 7.007 7.007 0 0 0 6.844 8.495 1 1 0 0 1 0 2zm0-4a4.983 4.983 0 0 1 -3.882-1.849 5.045 5.045 0 0 1 -1-4.238 4.94 4.94 0 0 1 3.215-3.629 1 1 0 0 0 .667-.944v-1.34h2v1.348a1 1 0 0 0 .667.942 5.012 5.012 0 0 1 3.233 3.71h-2.071a3 3 0 1 0 -2.829 4 5 5 0 0 1 1.667 9.709 1 1 0 0 0 -.667.942v1.349h-2v-1.349a1 1 0 0 0 -.667-.942 5.011 5.011 0 0 1 -3.233-3.709h2.069a3 3 0 1 0 2.831-4z"/><path d="m19 36a17 17 0 1 0 -17-17 17.019 17.019 0 0 0 17 17zm0-32a15 15 0 1 1 -15 15 15.017 15.017 0 0 1 15-15z"/><path d="m45 28a17 17 0 1 0 17 17 17.024 17.024 0 0 0 -17-17zm0 32a15 15 0 1 1 15-15 15.018 15.018 0 0 1 -15 15z"/><path d="m55.71 42.29-10-10a1.008 1.008 0 0 0 -1.42 0l-10 10a1 1 0 0 0 -.21 1.09.987.987 0 0 0 .92.62h3v7h-1a1 1 0 0 0 -1 1v4a1 1 0 0 0 1 1h16a1 1 0 0 0 1-1v-4a1 1 0 0 0 -1-1h-1v-7h3a.987.987 0 0 0 .92-.62 1 1 0 0 0 -.21-1.09zm-3.71 12.71h-14v-2h14zm-12-4v-7h2v7zm4 0v-7h2v7zm4 0v-7h2v7zm-10.59-9 7.59-7.59 7.59 7.59z"/><circle cx="45" cy="39" r="2"/><path d="m7.146 37.56 2.147 2.147 1.414-1.414-4-4a1 1 0 0 0 -1.414 0l-4 4 1.414 1.414 2.4-2.4a25.031 25.031 0 0 0 24.893 22.693v-2a23.03 23.03 0 0 1 -22.854-20.44z"/><path d="m56.854 26.44-2.147-2.147-1.414 1.414 4 4a1 1 0 0 0 1.414 0l4-4-1.414-1.414-2.4 2.4a25.031 25.031 0 0 0 -24.893-22.693v2a23.03 23.03 0 0 1 22.854 20.44z"/></g></svg>